HIERARCHY
ROOT Hips
{
	OFFSET 0.000000 0.000000 0.000000
	CHANNELS 6 Xposition Yposition Zposition Zrotation Yrotation Xrotation 
	JOINT LHipJoint
	{
		OFFSET 0.000000 0.000000 0.000000
		CHANNELS 3 Zrotation Yrotation Xrotation
		JOINT LeftUpLeg
		{
			OFFSET 1.363060 -1.794630 0.839290
			CHANNELS 3 Zrotation Yrotation Xrotation
			JOINT LeftLeg
			{
				OFFSET 2.448110 -6.726130 0.000000
				CHANNELS 3 Zrotation Yrotation Xrotation
				JOINT LeftFoot
				{
					OFFSET 2.562200 -7.039590 0.000000
					CHANNELS 3 Zrotation Yrotation Xrotation
					JOINT LeftToeBase
					{
						OFFSET 0.157640 -0.433110 2.322550
						CHANNELS 3 Zrotation Yrotation Xrotation
						End Site
						{
							OFFSET 0.000000 0.000000 0.000000
						}
					}
				}
			}
		}
	}
	JOINT RHipJoint
	{
		OFFSET 0.000000 0.000000 0.000000
		CHANNELS 3 Zrotation Yrotation Xrotation
		JOINT RightUpLeg
		{
			OFFSET -1.305520 -1.794630 0.839290
			CHANNELS 3 Zrotation Yrotation Xrotation
			JOINT RightLeg
			{
				OFFSET -2.542530 -6.985550 0.000000
				CHANNELS 3 Zrotation Yrotation Xrotation
				JOINT RightFoot
				{
					OFFSET -2.568260 -7.056230 0.000000
					CHANNELS 3 Zrotation Yrotation Xrotation
					JOINT RightToeBase
					{
						OFFSET -0.164730 -0.452590 2.363150
						CHANNELS 3 Zrotation Yrotation Xrotation
						End Site
						{
							OFFSET 0.000000 0.000000 0.000000
						}
					}
				}
			}
		}
	}
}
MOTION
Frames: 19
Frame Time: 0.008333
2.787597 16.714378 -0.265413 -38.647682 86.535375 -29.779329 -11.577820 3.925913 -0.464161 -2.926187 5.730429 4.885348 -0.475731 1.908583 29.065544 0.487083 0.923535 6.123218 0.136100 0.000000 -83.754700 7.850765 -1.130241 3.544629 11.525686 7.247901 -33.479701 2.817811 -0.490301 12.172386 -0.217713 -2.438373 8.536235 -1.475100 -0.000000 -29.285300
2.966651 16.739411 -0.240016 -44.214152 86.401907 -35.380070 -11.821161 3.889937 -0.486440 -2.145848 6.063798 3.535614 -0.190799 2.057208 31.873943 0.594745 0.915398 8.658526 0.088600 0.000000 -82.884799 7.691214 -1.267792 3.536404 12.084298 7.493828 -33.158098 2.816580 -0.588539 13.165460 -0.286384 -2.735387 8.012168 -1.535099 -0.000000 -28.117700
3.141478 16.764538 -0.212608 -48.793945 86.255554 -39.980241 -12.037855 3.829794 -0.505669 -1.476608 6.354000 2.067115 0.075609 2.183671 34.782037 0.743033 1.127421 11.073581 0.084900 -0.000000 -80.648300 7.554855 -1.381356 3.522847 12.611553 7.695073 -32.786947 2.820412 -0.665584 14.054186 -0.357556 -3.020757 7.322297 -1.577200 0.000001 -26.853800
3.311983 16.789680 -0.183323 -52.710551 86.122220 -43.902372 -12.222341 3.743207 -0.521786 -0.930403 6.581432 0.496330 0.315736 2.290091 37.762022 0.923572 1.627494 13.230938 0.177699 0.000000 -77.143200 7.442504 -1.474121 3.505603 13.098532 7.844500 -32.365137 2.829428 -0.720990 14.815169 -0.430163 -3.288477 6.503813 -1.599200 0.000000 -25.538200
3.478396 16.814836 -0.153028 -56.448141 86.007507 -47.628418 -12.382950 3.627467 -0.536130 -0.480251 6.748130 -1.171571 0.528095 2.380916 40.790797 1.125384 2.450578 15.010108 0.408801 0.000000 -72.647100 7.341500 -1.555168 3.491609 13.559208 7.960705 -31.883984 2.846525 -0.752422 15.409065 -0.506063 -3.556470 5.608367 -1.608700 -0.000000 -24.203999
3.640708 16.840184 -0.121717 -60.057842 85.926090 -51.214226 -12.516741 3.488168 -0.548380 -0.145845 6.839818 -2.911837 0.712813 2.463595 43.825910 1.340778 3.633849 16.336149 0.810500 0.000000 -67.561900 7.255526 -1.624053 3.476109 13.977914 8.024615 -31.350254 2.869766 -0.762355 15.841222 -0.581319 -3.803374 4.670950 -1.600700 0.000000 -22.914401
3.799113 16.865947 -0.089884 -63.715423 85.877565 -54.838953 -12.629405 3.328597 -0.558467 0.082917 6.855285 -4.705631 0.874774 2.543830 46.827710 1.564272 5.166841 17.174522 1.381700 0.000001 -62.350100 7.179555 -1.684320 3.458997 14.356116 8.040581 -30.763181 2.898773 -0.751858 16.105163 -0.654944 -4.030946 3.733986 -1.579300 -0.000001 -21.714100
3.953900 16.892345 -0.057949 -67.506536 85.858059 -58.590705 -12.725859 3.152362 -0.565645 0.214503 6.793362 -6.533465 1.019427 2.625459 49.755169 1.793046 7.005057 17.529080 2.091500 0.000000 -57.409700 7.110217 -1.737995 3.439495 14.693680 8.014563 -30.125383 2.932229 -0.722720 16.203281 -0.726015 -4.241804 2.834078 -1.549100 0.000000 -20.642600
4.105341 16.919595 -0.026103 -71.415823 85.863856 -62.458063 -12.808463 2.964110 -0.569203 0.252821 6.654676 -8.372332 1.150971 2.710609 52.568040 2.025202 9.074576 17.428583 2.884400 -0.000000 -52.996000 7.047528 -1.785203 3.415819 14.985684 7.951468 -29.440436 2.967523 -0.677676 16.148480 -0.793319 -4.436579 1.999775 -1.513700 -0.000000 -19.731200
4.253633 16.947897 0.005553 -75.358495 85.891573 -66.362197 -12.877406 2.768822 -0.570015 0.201097 6.444943 -10.197053 1.271836 2.800089 55.228136 2.257919 11.277760 16.914901 3.689300 -0.000000 -49.187100 6.993833 -1.824688 3.384892 15.225689 7.855728 -28.709369 3.001525 -0.620005 15.959732 -0.855735 -4.615565 1.250006 -1.476500 0.000000 -18.996400
4.399269 16.977252 0.036876 -79.278145 85.933488 -70.243519 -12.934624 2.570129 -0.565860 0.072711 6.174040 -11.999750 1.383530 2.892063 57.704048 2.487049 13.502219 16.047733 4.430600 -0.000000 -46.041800 6.947864 -1.857463 3.351484 15.414321 7.748820 -27.942231 3.032005 -0.551759 15.651527 -0.914596 -4.792153 0.598869 -1.443400 -0.000000 -18.431200
4.542364 17.007671 0.068093 -82.992105 85.991622 -73.927314 -12.975393 2.373543 -0.561135 -0.131984 5.856954 -13.753122 1.485203 2.985639 59.963042 2.705659 15.634226 14.881193 5.038400 0.000000 -43.376000 6.916331 -1.880297 3.310335 15.543258 7.631125 -27.136543 3.055779 -0.476959 15.250977 -0.968511 -4.960769 0.044656 -1.413900 -0.000000 -18.020100
4.683314 17.038989 0.099284 -86.400839 86.064097 -77.311065 -12.998197 2.182380 -0.554199 -0.402180 5.506887 -15.452480 1.575961 3.076829 61.979440 2.906483 17.569715 13.496212 5.464000 0.000000 -41.201700 6.900412 -1.893785 3.266298 15.613387 7.519899 -26.301933 3.071317 -0.397740 14.776597 -1.018801 -5.129302 -0.418135 -1.390300 0.000000 -17.725300
4.822272 17.070922 0.130647 -89.336172 86.152837 -80.234192 -12.998801 2.000269 -0.548914 -0.730298 5.143587 -17.076821 1.653624 3.162508 63.728444 3.080598 19.217732 11.968745 5.679901 -0.000000 -39.416100 6.904469 -1.896926 3.217111 15.625106 7.418048 -25.432744 3.077683 -0.317114 14.249228 -1.064685 -5.291659 -0.804470 -1.370500 0.000000 -17.497101
4.959979 17.103154 0.162380 -91.824954 86.263026 -82.702875 -12.974983 1.828318 -0.539466 -1.114259 4.767508 -18.651499 1.716310 3.237812 65.205747 3.220847 20.519777 10.366847 5.686400 -0.000000 -37.914600 6.929670 -1.890946 3.170564 15.577982 7.334653 -24.561953 3.074797 -0.235788 13.686062 -1.107099 -5.448160 -1.132908 -1.353600 0.000000 -17.294001
5.096269 17.135284 0.194608 -93.666558 86.394634 -84.534909 -12.923588 1.668998 -0.531444 -1.542453 4.402674 -20.145478 1.761334 3.299889 66.391065 3.320329 21.433224 8.776188 5.509900 0.000000 -36.723000 6.979128 -1.876003 3.121325 15.479867 7.261355 -23.668215 3.063958 -0.156190 13.100616 -1.143606 -5.582101 -1.424099 -1.334400 -0.000000 -17.057900
5.231524 17.166902 0.227030 -94.782923 86.537648 -85.645473 -12.847138 1.519834 -0.525220 -1.991479 4.064149 -21.568262 1.787271 3.346067 67.284436 3.375586 21.949362 7.264620 5.194300 0.000000 -35.825700 7.047524 -1.855103 3.073400 15.350897 7.209379 -22.754361 3.048450 -0.077369 12.489267 -1.175096 -5.695917 -1.690252 -1.312700 -0.000001 -16.743899
5.366070 17.197664 0.260400 -95.185742 86.714213 -86.040476 -12.737333 1.386526 -0.515376 -2.491423 3.736755 -22.926846 1.791654 3.374436 67.887225 3.386016 22.090993 5.853422 4.783100 0.000001 -35.043200 7.147439 -1.825493 3.021001 15.170373 7.131803 -21.848536 3.028043 -0.001702 11.882416 -1.194300 -5.742420 -1.961767 -1.277100 0.000000 -16.344300
5.500115 17.227134 0.293672 -94.640047 86.888998 -85.486151 -12.603880 1.262815 -0.505740 -2.989131 3.449842 -24.224873 1.775154 3.385089 68.206072 3.355033 21.898025 4.597710 4.331300 0.000000 -34.423100 7.263591 -1.792842 2.970434 14.984053 7.060318 -20.928741 3.008948 0.074553 11.249383 -1.204600 -5.744082 -2.230217 -1.234000 0.000000 -15.832700
